<mxfile host="app.diagrams.net" modified="2023-09-13T11:52:49.658Z" agent="Mozilla/5.0 (Windows NT 10.0; Win64; x64) AppleWebKit/537.36 (KHTML, like Gecko) Chrome/116.0.0.0 Safari/537.36" etag="Zm3N5W315efsKFkEwBEt" version="21.7.5" type="github">
  <diagram id="prtHgNgQTEPvFCAcTncT" name="Page-1">
    <mxGraphModel dx="1434" dy="750" grid="1" gridSize="10" guides="1" tooltips="1" connect="1" arrows="1" fold="1" page="1" pageScale="1" pageWidth="1169" pageHeight="827" math="0" shadow="0">
      <root>
        <mxCell id="0" />
        <mxCell id="1" parent="0" />
        <mxCell id="gJhfEPrgk0ttWDwor9L8-6" style="edgeStyle=orthogonalEdgeStyle;rounded=0;orthogonalLoop=1;jettySize=auto;html=1;exitX=0.5;exitY=1;exitDx=0;exitDy=0;entryX=0.5;entryY=0;entryDx=0;entryDy=0;" edge="1" parent="1" source="gJhfEPrgk0ttWDwor9L8-1" target="gJhfEPrgk0ttWDwor9L8-2">
          <mxGeometry relative="1" as="geometry" />
        </mxCell>
        <mxCell id="gJhfEPrgk0ttWDwor9L8-1" value="Root Widget&lt;br&gt;&lt;br&gt;Grundkonfiguration der App" style="rounded=1;whiteSpace=wrap;html=1;" vertex="1" parent="1">
          <mxGeometry x="440" y="20" width="280" height="110" as="geometry" />
        </mxCell>
        <mxCell id="gJhfEPrgk0ttWDwor9L8-9" style="edgeStyle=orthogonalEdgeStyle;rounded=0;orthogonalLoop=1;jettySize=auto;html=1;exitX=0.25;exitY=1;exitDx=0;exitDy=0;entryX=0.5;entryY=0;entryDx=0;entryDy=0;" edge="1" parent="1" source="gJhfEPrgk0ttWDwor9L8-2" target="gJhfEPrgk0ttWDwor9L8-3">
          <mxGeometry relative="1" as="geometry">
            <Array as="points">
              <mxPoint x="563" y="280" />
              <mxPoint x="290" y="280" />
            </Array>
          </mxGeometry>
        </mxCell>
        <mxCell id="gJhfEPrgk0ttWDwor9L8-10" style="edgeStyle=orthogonalEdgeStyle;rounded=0;orthogonalLoop=1;jettySize=auto;html=1;exitX=0.75;exitY=1;exitDx=0;exitDy=0;entryX=0.408;entryY=0;entryDx=0;entryDy=0;entryPerimeter=0;" edge="1" parent="1" source="gJhfEPrgk0ttWDwor9L8-2" target="gJhfEPrgk0ttWDwor9L8-4">
          <mxGeometry relative="1" as="geometry" />
        </mxCell>
        <mxCell id="gJhfEPrgk0ttWDwor9L8-2" value="Login/Registrierung&lt;br&gt;Screen&lt;br&gt;&lt;br&gt;für Veranstalter und Kunde" style="rounded=1;whiteSpace=wrap;html=1;" vertex="1" parent="1">
          <mxGeometry x="455" y="160" width="250" height="80" as="geometry" />
        </mxCell>
        <mxCell id="gJhfEPrgk0ttWDwor9L8-22" style="edgeStyle=orthogonalEdgeStyle;rounded=0;orthogonalLoop=1;jettySize=auto;html=1;exitX=0.5;exitY=1;exitDx=0;exitDy=0;entryX=0.358;entryY=-0.033;entryDx=0;entryDy=0;entryPerimeter=0;" edge="1" parent="1" source="gJhfEPrgk0ttWDwor9L8-3" target="gJhfEPrgk0ttWDwor9L8-13">
          <mxGeometry relative="1" as="geometry" />
        </mxCell>
        <mxCell id="gJhfEPrgk0ttWDwor9L8-24" style="edgeStyle=orthogonalEdgeStyle;rounded=0;orthogonalLoop=1;jettySize=auto;html=1;exitX=0.5;exitY=1;exitDx=0;exitDy=0;entryX=0.5;entryY=0;entryDx=0;entryDy=0;" edge="1" parent="1" source="gJhfEPrgk0ttWDwor9L8-3" target="gJhfEPrgk0ttWDwor9L8-12">
          <mxGeometry relative="1" as="geometry" />
        </mxCell>
        <mxCell id="gJhfEPrgk0ttWDwor9L8-25" style="edgeStyle=orthogonalEdgeStyle;rounded=0;orthogonalLoop=1;jettySize=auto;html=1;exitX=0.5;exitY=1;exitDx=0;exitDy=0;entryX=0.417;entryY=-0.017;entryDx=0;entryDy=0;entryPerimeter=0;" edge="1" parent="1" source="gJhfEPrgk0ttWDwor9L8-3" target="gJhfEPrgk0ttWDwor9L8-11">
          <mxGeometry relative="1" as="geometry" />
        </mxCell>
        <mxCell id="gJhfEPrgk0ttWDwor9L8-26" style="edgeStyle=orthogonalEdgeStyle;rounded=0;orthogonalLoop=1;jettySize=auto;html=1;exitX=0.5;exitY=1;exitDx=0;exitDy=0;entryX=0.575;entryY=-0.033;entryDx=0;entryDy=0;entryPerimeter=0;" edge="1" parent="1" source="gJhfEPrgk0ttWDwor9L8-3" target="gJhfEPrgk0ttWDwor9L8-14">
          <mxGeometry relative="1" as="geometry" />
        </mxCell>
        <mxCell id="gJhfEPrgk0ttWDwor9L8-3" value="Dashboard&lt;br&gt;Veranstalter" style="rounded=1;whiteSpace=wrap;html=1;" vertex="1" parent="1">
          <mxGeometry x="230" y="320" width="120" height="60" as="geometry" />
        </mxCell>
        <mxCell id="gJhfEPrgk0ttWDwor9L8-27" style="edgeStyle=orthogonalEdgeStyle;rounded=0;orthogonalLoop=1;jettySize=auto;html=1;exitX=0.5;exitY=1;exitDx=0;exitDy=0;entryX=0.5;entryY=0;entryDx=0;entryDy=0;" edge="1" parent="1" source="gJhfEPrgk0ttWDwor9L8-4" target="gJhfEPrgk0ttWDwor9L8-18">
          <mxGeometry relative="1" as="geometry" />
        </mxCell>
        <mxCell id="gJhfEPrgk0ttWDwor9L8-28" style="edgeStyle=orthogonalEdgeStyle;rounded=0;orthogonalLoop=1;jettySize=auto;html=1;exitX=0.5;exitY=1;exitDx=0;exitDy=0;entryX=0.5;entryY=0;entryDx=0;entryDy=0;" edge="1" parent="1" source="gJhfEPrgk0ttWDwor9L8-4" target="gJhfEPrgk0ttWDwor9L8-17">
          <mxGeometry relative="1" as="geometry" />
        </mxCell>
        <mxCell id="gJhfEPrgk0ttWDwor9L8-29" style="edgeStyle=orthogonalEdgeStyle;rounded=0;orthogonalLoop=1;jettySize=auto;html=1;exitX=0.5;exitY=1;exitDx=0;exitDy=0;entryX=0.45;entryY=-0.033;entryDx=0;entryDy=0;entryPerimeter=0;" edge="1" parent="1" source="gJhfEPrgk0ttWDwor9L8-4" target="gJhfEPrgk0ttWDwor9L8-16">
          <mxGeometry relative="1" as="geometry" />
        </mxCell>
        <mxCell id="gJhfEPrgk0ttWDwor9L8-30" style="edgeStyle=orthogonalEdgeStyle;rounded=0;orthogonalLoop=1;jettySize=auto;html=1;exitX=0.5;exitY=1;exitDx=0;exitDy=0;entryX=0.417;entryY=-0.017;entryDx=0;entryDy=0;entryPerimeter=0;" edge="1" parent="1" source="gJhfEPrgk0ttWDwor9L8-4" target="gJhfEPrgk0ttWDwor9L8-15">
          <mxGeometry relative="1" as="geometry" />
        </mxCell>
        <mxCell id="gJhfEPrgk0ttWDwor9L8-4" value="Dashboard&lt;br&gt;Kunde" style="rounded=1;whiteSpace=wrap;html=1;" vertex="1" parent="1">
          <mxGeometry x="823" y="320" width="120" height="60" as="geometry" />
        </mxCell>
        <mxCell id="gJhfEPrgk0ttWDwor9L8-11" value="KursAnlegen&lt;br&gt;Screen" style="rounded=1;whiteSpace=wrap;html=1;" vertex="1" parent="1">
          <mxGeometry x="10" y="440" width="120" height="60" as="geometry" />
        </mxCell>
        <mxCell id="gJhfEPrgk0ttWDwor9L8-12" value="KursBearbeiten&lt;br&gt;Screen" style="rounded=1;whiteSpace=wrap;html=1;" vertex="1" parent="1">
          <mxGeometry x="150" y="440" width="120" height="60" as="geometry" />
        </mxCell>
        <mxCell id="gJhfEPrgk0ttWDwor9L8-13" value="KursLöschen&lt;br&gt;Screen" style="rounded=1;whiteSpace=wrap;html=1;" vertex="1" parent="1">
          <mxGeometry x="290" y="440" width="120" height="60" as="geometry" />
        </mxCell>
        <mxCell id="gJhfEPrgk0ttWDwor9L8-14" value="KalenderScreen" style="rounded=1;whiteSpace=wrap;html=1;" vertex="1" parent="1">
          <mxGeometry x="432" y="440" width="120" height="60" as="geometry" />
        </mxCell>
        <mxCell id="gJhfEPrgk0ttWDwor9L8-15" value="KursInformieren&lt;br&gt;Screen" style="rounded=1;whiteSpace=wrap;html=1;" vertex="1" parent="1">
          <mxGeometry x="630" y="440" width="120" height="60" as="geometry" />
        </mxCell>
        <mxCell id="gJhfEPrgk0ttWDwor9L8-16" value="KursDetails&lt;br&gt;Screen" style="rounded=1;whiteSpace=wrap;html=1;" vertex="1" parent="1">
          <mxGeometry x="770" y="440" width="120" height="60" as="geometry" />
        </mxCell>
        <mxCell id="gJhfEPrgk0ttWDwor9L8-17" value="KursBuchen&lt;br&gt;Screen" style="rounded=1;whiteSpace=wrap;html=1;" vertex="1" parent="1">
          <mxGeometry x="910" y="440" width="120" height="60" as="geometry" />
        </mxCell>
        <mxCell id="gJhfEPrgk0ttWDwor9L8-18" value="AccountScreen" style="rounded=1;whiteSpace=wrap;html=1;" vertex="1" parent="1">
          <mxGeometry x="1040" y="440" width="120" height="60" as="geometry" />
        </mxCell>
      </root>
    </mxGraphModel>
  </diagram>
</mxfile>
